<svg id="Ebene_1" data-name="Ebene 1" xmlns="http://www.w3.org/2000/svg" viewBox="0 0 470.85 798.82"><defs><style>.cls-1,.cls-2,.cls-5,.cls-6,.cls-7,.cls-8{fill:none;stroke-miterlimit:10;}.cls-1{stroke:#cdcccc;stroke-dasharray:5;}.cls-1,.cls-2{stroke-width:2px;}.cls-2{stroke:#1d1d1b;}.cls-3,.cls-4,.cls-9{fill:#1d1d1b;}.cls-4,.cls-9{font-size:18px;}.cls-4{font-family:MyriadPro-Regular, Myriad Pro;}.cls-5{stroke:#1e3e92;}.cls-5,.cls-6,.cls-7,.cls-8{stroke-width:4px;}.cls-6{stroke:#2c9237;}.cls-7{stroke:#e52421;}.cls-8{stroke:#e99f0e;}.cls-9{font-family:MyriadPro-Bold, Myriad Pro;font-weight:700;}</style></defs><line class="cls-1" x1="119.57" y1="18.86" x2="119.57" y2="764.98"/><line class="cls-1" x1="169.57" y1="18.86" x2="169.57" y2="764.98"/><line class="cls-1" x1="219.57" y1="18.86" x2="219.57" y2="764.98"/><line class="cls-1" x1="269.57" y1="18.86" x2="269.57" y2="764.98"/><line class="cls-1" x1="319.57" y1="18.86" x2="319.57" y2="764.98"/><line class="cls-1" x1="369.57" y1="18.86" x2="369.57" y2="764.98"/><line class="cls-1" x1="419.57" y1="18.86" x2="419.57" y2="764.98"/><polyline class="cls-2" points="448.33 564.51 69.3 564.51 69.3 435.56"/><polygon class="cls-3" points="442.71 557.11 445.86 564.51 442.71 571.92 460.27 564.51 442.71 557.11"/><polygon class="cls-3" points="76.71 441.18 69.3 438.03 61.9 441.18 69.3 423.62 76.71 441.18"/><text class="cls-4" transform="translate(49.52 436.57)">v</text><text class="cls-4" transform="translate(448.52 587.35)">t</text><polyline class="cls-2" points="448.33 764.98 69.3 764.98 69.3 636.02"/><polygon class="cls-3" points="442.71 757.57 445.86 764.98 442.71 772.38 460.27 764.98 442.71 757.57"/><polygon class="cls-3" points="76.71 641.64 69.3 638.49 61.9 641.64 69.3 624.08 76.71 641.64"/><text class="cls-4" transform="translate(51.05 637.03)">s</text><text class="cls-4" transform="translate(448.52 787.81)">t</text><path class="cls-5" d="M69.3,564.52h.27c34.6,0,50-15.34,50-15.34s33-24.34,50-35.22,25-17.18,50-17.18h50c13.82,0,30.24,5.79,50,18.22s34.19,22.41,50,32.63c14.83,9.58,23.53,16.89,50,16.89H441"/><polyline class="cls-2" points="448.33 364.25 69.3 364.25 69.3 235.3"/><polygon class="cls-3" points="442.71 356.85 445.86 364.25 442.71 371.66 460.27 364.25 442.71 356.85"/><polygon class="cls-3" points="76.71 240.92 69.3 237.77 61.9 240.92 69.3 223.36 76.71 240.92"/><text class="cls-4" transform="translate(49.5 236.31)">a</text><text class="cls-4" transform="translate(448.52 387.09)">t</text><polyline class="cls-6" points="69.3 364.25 69.57 364.25 119.57 309.88 169.57 309.88 219.57 364.25 269.57 364.25 319.57 409.33 369.57 409.33 419.57 364.25 437.23 364.25"/><polyline class="cls-2" points="448.33 159.75 69.3 159.75 69.3 30.8"/><polygon class="cls-3" points="442.71 152.35 445.86 159.75 442.71 167.16 460.27 159.75 442.71 152.35"/><polygon class="cls-3" points="76.71 36.42 69.3 33.27 61.9 36.42 69.3 18.86 76.71 36.42"/><text class="cls-4" transform="translate(53.8 31.81)">j</text><text class="cls-4" transform="translate(448.52 182.59)">t</text><polyline class="cls-7" points="69.3 159.75 69.57 159.75 69.57 98.02 119.57 98.02 119.57 159.75 169.57 159.75 169.57 214.09 219.57 214.09 219.57 159.75 269.57 159.75 269.57 214.09 319.57 214.09 319.57 159.75 369.57 159.75 369.57 99.06 419.57 99.06 419.57 159.75 441.89 159.75"/><path class="cls-8" d="M69.3,765h.27c165.78,0,171.31-110.64,350.05-110.64h26.93"/><text class="cls-9" transform="translate(93.31 31.81)">I</text><text class="cls-9" transform="translate(140.75 31.81)">II</text><text class="cls-9" transform="translate(188.18 31.81)">III</text><text class="cls-9" transform="translate(237.59 31.81)">IV</text><text class="cls-9" transform="translate(290.15 31.81)">V</text><text class="cls-9" transform="translate(337.59 31.81)">VI</text><text class="cls-9" transform="translate(385.02 31.81)">VII</text></svg>